<svg xmlns="http://www.w3.org/2000/svg" width="16" height="13"  fill="none" viewBox="0 0 16 13"><defs/><path fill="#1F1E25" d="M16 1.629a6.76 6.76 0 01-1.886.499A3.205 3.205 0 0015.558.372a6.7 6.7 0 01-2.085.77A3.318 3.318 0 0011.611.18a3.382 3.382 0 00-2.085.333 3.219 3.219 0 00-1.443 1.491 3.075 3.075 0 00-.203 2.033 9.575 9.575 0 01-3.748-.962A9.269 9.269 0 011.114.72 3.081 3.081 0 00.67 2.316c0 1.1.579 2.072 1.46 2.64A3.359 3.359 0 01.643 4.56v.04c0 .732.262 1.442.742 2.009s1.148.956 1.891 1.101a3.416 3.416 0 01-1.483.055A3.18 3.18 0 002.96 9.342a3.36 3.36 0 001.9.627c-.681.517-1.461.899-2.295 1.124a6.807 6.807 0 01-2.565.19 9.522 9.522 0 005.031 1.426c6.039 0 9.341-4.835 9.341-9.028 0-.136-.004-.274-.01-.41A6.55 6.55 0 0016 1.63z"/></svg>