<svg xmlns="http://www.w3.org/2000/svg" width="82" height="13" fill="none">
  <defs/>
  <path fill="#1F1E25" d="M4.922 3.66h1.084V10H4.922V5.377L1.998 10H.914V3.66h1.084v4.63l2.924-4.63zM12.926 10h-1.084V7.293H8.93V10H7.84V3.66h1.09v2.748h2.912V3.66h1.084V10zm6.457-5.46h-2.127V10h-1.084V4.54h-2.086v-.88h5.297v.88zm3.217 5.577c-.86 0-1.559-.281-2.098-.844-.54-.566-.809-1.322-.809-2.267v-.2c0-.628.12-1.189.358-1.681a2.814 2.814 0 011.008-1.16 2.535 2.535 0 011.406-.422c.824 0 1.465.271 1.922.814.457.543.685 1.32.685 2.332v.452h-4.295c.016.625.198 1.13.545 1.517.352.383.797.574 1.336.574.383 0 .707-.078.973-.234.265-.156.498-.363.697-.621l.662.516c-.531.816-1.328 1.224-2.39 1.224zm-.135-5.683c-.438 0-.805.16-1.102.48-.297.316-.48.762-.55 1.336h3.175v-.082c-.031-.55-.18-.977-.445-1.277-.266-.305-.625-.457-1.078-.457zM31.688 6.9c0 .965-.221 1.743-.663 2.332-.441.59-1.039.885-1.793.885-.77 0-1.375-.244-1.816-.732v3.053h-1.084V3.66h.99l.053.703c.441-.547 1.055-.82 1.84-.82.762 0 1.363.287 1.805.861.445.575.668 1.373.668 2.397v.1zm-1.084-.123c0-.715-.153-1.279-.457-1.693-.305-.414-.723-.621-1.254-.621-.657 0-1.149.29-1.477.873v3.03c.324.577.82.866 1.488.866.52 0 .932-.205 1.237-.615.308-.414.463-1.027.463-1.84zM38.25 10h-1.084V7.293h-2.912V10h-1.09V3.66h1.09v2.748h2.912V3.66h1.084V10zm4.377.117c-.86 0-1.559-.281-2.098-.844-.539-.566-.808-1.322-.808-2.267v-.2c0-.628.119-1.189.357-1.681a2.814 2.814 0 011.008-1.16 2.535 2.535 0 011.406-.422c.824 0 1.465.271 1.922.814.457.543.686 1.32.686 2.332v.452h-4.295c.015.625.197 1.13.545 1.517.351.383.797.574 1.335.574.383 0 .708-.078.973-.234.266-.156.498-.363.697-.621l.663.516c-.532.816-1.328 1.224-2.391 1.224zm-.135-5.683c-.437 0-.804.16-1.101.48-.297.316-.48.762-.551 1.336h3.176v-.082c-.032-.55-.18-.977-.446-1.277-.265-.305-.625-.457-1.078-.457zM51 4.539h-2.127V10h-1.084V4.54h-2.086v-.88H51v.88zm3.31 2.28h-2.859v-.885h2.86v.884zm3.844-2.796c.797 0 1.434.268 1.91.803.48.531.721 1.233.721 2.104v.1c0 .597-.115 1.132-.345 1.605-.231.469-.563.834-.997 1.095-.43.258-.925.387-1.488.387-.852 0-1.537-.283-2.057-.85-.52-.57-.779-1.333-.779-2.29v-.528c0-1.332.246-2.39.738-3.176.496-.785 1.227-1.263 2.192-1.435.547-.098.916-.217 1.107-.358a.68.68 0 00.287-.58h.891c0 .489-.111.87-.334 1.143-.219.273-.57.467-1.055.58l-.808.182c-.645.152-1.13.41-1.453.773-.32.36-.53.84-.627 1.442.574-.665 1.273-.997 2.097-.997zm-.21.891c-.532 0-.954.18-1.266.54-.313.355-.469.849-.469 1.482v.093c0 .68.156 1.219.469 1.617.316.395.742.592 1.277.592.54 0 .965-.199 1.277-.597.313-.399.47-.98.47-1.746 0-.598-.159-1.077-.475-1.436-.313-.363-.74-.545-1.284-.545zM65.917 10c-.063-.125-.113-.348-.152-.668-.504.523-1.106.785-1.805.785-.625 0-1.139-.176-1.541-.527a1.728 1.728 0 01-.598-1.348c0-.66.25-1.172.75-1.535.504-.367 1.211-.55 2.121-.55h1.055v-.499c0-.379-.113-.68-.34-.902-.226-.227-.56-.34-1.002-.34-.387 0-.71.098-.972.293-.262.195-.393.432-.393.709h-1.09c0-.316.111-.621.334-.914.227-.297.531-.531.914-.703.387-.172.81-.258 1.272-.258.73 0 1.302.184 1.716.55.415.364.63.866.645 1.507v2.918c0 .582.074 1.044.223 1.388V10h-1.137zm-1.799-.826c.34 0 .662-.088.967-.264.305-.176.525-.404.662-.685V6.924h-.85c-1.328 0-1.992.388-1.992 1.166 0 .34.114.605.34.797.227.191.518.287.873.287zm9.592.826h-1.084V7.293h-2.912V10h-1.09V3.66h1.09v2.748h2.912V3.66h1.084V10zm3.72-2.701h-.79V10h-1.09V3.66h1.09v2.684h.709l2.132-2.684h1.313l-2.508 3.047L81.006 10h-1.377l-2.197-2.701z"/>
</svg>
