<svg width="31" height="35" viewBox="0 0 31 35" fill="none" xmlns="http://www.w3.org/2000/svg">
<path d="M25.7531 24.3345L15.5 34L5.24689 24.3345C3.21905 22.4228 1.83808 19.9872 1.27861 17.3357C0.719136 14.6842 1.00629 11.9358 2.10377 9.43809C3.20125 6.94041 5.05975 4.8056 7.44425 3.30364C9.82876 1.80167 12.6322 1 15.5 1C18.3678 1 21.1712 1.80167 23.5557 3.30364C25.9403 4.8056 27.7988 6.94041 28.8962 9.43809C29.9937 11.9358 30.2809 14.6842 29.7214 17.3357C29.1619 19.9872 27.7809 22.4228 25.7531 24.3345Z" fill="#2C36F2"/>
<path d="M16.3434 8.61538H14.9377L8.75247 18.728H10.5799L11.4234 17.2833L16.3434 8.61538Z" fill="#2C36F2"/>
<path d="M9.59591 20.4615H21.4041L16.3434 11.5047L15.5 12.9493L18.0303 17.2833L18.8738 18.728H10.5799H8.75247L9.59591 20.4615Z" fill="#2C36F2"/>
<path d="M18.8738 18.728L18.0303 17.2833H12.9697H11.4234L10.5799 18.728H18.8738Z" fill="#2C36F2"/>
<path d="M21.4041 20.4615L22.2475 18.728L16.3434 8.61538L11.4234 17.2833H12.9697L15.5 12.9493L16.3434 11.5047L21.4041 20.4615Z" fill="#2C36F2"/>
<path d="M15.5 12.9493L12.9697 17.2833H18.0303L15.5 12.9493Z" fill="#2C36F2"/>
<path d="M21.4041 20.4615H9.59591L8.75247 18.728M21.4041 20.4615L22.2475 18.728L16.3434 8.61538M21.4041 20.4615L16.3434 11.5047L15.5 12.9493M16.3434 8.61538H14.9377L8.75247 18.728M16.3434 8.61538L11.4234 17.2833M8.75247 18.728H10.5799M15.5 12.9493L12.9697 17.2833M15.5 12.9493L18.0303 17.2833M12.9697 17.2833H18.0303M12.9697 17.2833H11.4234M18.0303 17.2833L18.8738 18.728H10.5799M11.4234 17.2833L10.5799 18.728M25.7531 24.3345L15.5 34L5.24689 24.3345C3.21905 22.4228 1.83808 19.9872 1.27861 17.3357C0.719136 14.6842 1.00629 11.9358 2.10377 9.43809C3.20125 6.94041 5.05975 4.8056 7.44425 3.30364C9.82876 1.80167 12.6322 1 15.5 1C18.3678 1 21.1712 1.80167 23.5557 3.30364C25.9403 4.8056 27.7988 6.94041 28.8962 9.43809C29.9937 11.9358 30.2809 14.6842 29.7214 17.3357C29.1619 19.9872 27.7809 22.4228 25.7531 24.3345Z" stroke="#F6F7FF" stroke-width="0.5"/>
</svg>
