<svg xmlns="http://www.w3.org/2000/svg" width="16" height="17" fill="none" viewBox="0 0 16 17"><defs/><path fill="#1F1E25" d="M16 12.17v3.04a.844.844 0 01-.24.586.901.901 0 01-.588.272c-.388.025-.705.04-.95.04C6.366 16.107 0 9.95 0 2.352c0-.237.013-.544.04-.92A.849.849 0 01.323.865.906.906 0 01.928.634H4.07c.11 0 .216.04.298.11.082.072.134.17.145.277.02.197.039.355.056.474a11.661 11.661 0 001.074 3.44.384.384 0 01-.13.487L3.594 6.747c1.173 2.643 3.35 4.75 6.084 5.884l1.368-1.852a.424.424 0 01.51-.128c1.124.517 2.323.866 3.555 1.036.124.017.286.036.489.055.11.01.21.06.285.14.073.079.114.181.114.288z"/></svg>